<?xml version="1.0" standalone="no"?>
<!DOCTYPE svg PUBLIC "-//W3C//DTD SVG 20010904//EN"
 "http://www.w3.org/TR/2001/REC-SVG-20010904/DTD/svg10.dtd">
<svg version="1.0" xmlns="http://www.w3.org/2000/svg"
 width="360.000000pt" height="360.000000pt" viewBox="0 0 360.000000 360.000000"
 preserveAspectRatio="xMidYMid meet">

<g transform="translate(0.000000,360.000000) scale(0.100000,-0.100000)"
fill="#000000" stroke="none">
<path d="M1772 3308 c-8 -8 -12 -66 -12 -195 0 -172 1 -183 20 -193 14 -8 26
-8 40 0 19 10 20 21 20 193 0 187 -4 207 -40 207 -9 0 -21 -5 -28 -12z"/>
<path d="M738 2869 c-39 -22 -21 -52 110 -182 71 -70 132 -127 136 -127 19 0
46 22 46 38 0 15 -257 283 -270 282 -3 0 -13 -5 -22 -11z"/>
<path d="M2718 2753 c-71 -71 -128 -135 -128 -144 0 -19 20 -39 40 -39 8 0 73
58 144 129 103 103 127 133 124 152 -2 17 -10 25 -28 27 -20 2 -49 -21 -152
-125z"/>
<path d="M1618 2785 c-383 -73 -684 -355 -790 -743 -31 -112 -31 -373 -1 -484
86 -306 278 -538 557 -669 146 -68 226 -84 421 -83 199 0 270 15 423 89 120
58 170 92 266 184 98 95 154 173 211 292 73 156 90 236 90 429 0 142 -3 177
-23 250 -98 357 -369 625 -730 722 -101 27 -315 33 -424 13z m401 -221 c144
-42 233 -95 341 -204 78 -77 105 -112 142 -185 57 -110 86 -212 94 -325 11
-151 -29 -320 -108 -455 -53 -91 -192 -230 -283 -283 -398 -233 -908 -81
-1118 335 -15 28 -39 91 -53 140 -35 118 -37 288 -5 408 118 441 559 694 990
569z"/>
<path d="M1579 2446 c-105 -37 -178 -83 -259 -165 -134 -135 -190 -263 -198
-448 -9 -214 50 -366 197 -514 139 -139 293 -203 486 -202 160 1 298 49 426
149 123 97 225 272 246 419 l5 43 -53 -10 c-113 -21 -264 7 -399 74 -66 33
-103 61 -165 123 -131 130 -197 286 -199 462 -1 55 -5 93 -11 93 -5 0 -40 -11
-76 -24z"/>
<path d="M292 1828 c-7 -7 -12 -20 -12 -29 0 -36 22 -40 210 -37 161 3 184 5
194 21 8 12 8 22 0 35 -10 15 -33 17 -195 20 -135 2 -188 -1 -197 -10z"/>
<path d="M2943 1833 c-19 -7 -16 -60 3 -67 9 -3 96 -6 194 -6 167 0 180 1 190
19 13 25 13 27 -6 45 -13 13 -44 16 -192 15 -97 0 -183 -3 -189 -6z"/>
<path d="M2576 1014 c-9 -8 -16 -20 -16 -26 0 -6 57 -69 127 -140 102 -103
133 -128 152 -126 13 2 29 11 35 20 9 15 -9 38 -124 153 -74 74 -140 135 -147
135 -6 0 -19 -7 -27 -16z"/>
<path d="M847 882 c-70 -70 -127 -134 -127 -143 0 -19 20 -39 40 -39 8 0 73
58 144 129 115 115 128 132 122 155 -13 51 -44 34 -179 -102z"/>
<path d="M1771 696 c-8 -9 -11 -70 -9 -196 3 -161 5 -184 21 -194 12 -8 22 -8
35 0 15 10 17 33 20 194 3 188 -1 210 -38 210 -10 0 -23 -6 -29 -14z"/>
</g>
</svg>
